<svg xmlns="http://www.w3.org/2000/svg" height="512" width="512">
  <circle r="230" cy="257" cx="257" fill="#c08"/>
  <g fill="#ffd">
    <path d="M159.53 120.03c-.57.13-.7 1.37-.7 9.63 0 6.66.17 9.55.53 9.63.26.1 43.95.18 97.06.18l96.57-.04.08-9.68c.05-7.24-.04-9.64-.44-9.68-1.6-.09-192.52-.18-193.1-.04zm38.28 38.89c-.05.09-.1 14.78-.05 17l.05 2.36h58.16c55.1 0 58.17-.05 58.21-.8 0-.8 0-14.25-.04-17.05v-1.6h-58.17c-31.97 0-58.16.05-58.16.09zm39.07 38.9c-.18.13-.31 4.52-.27 9.76l.05 9.55h9.41c7.1 0 9.28.13 8.88.49-.27.26-7.33 4.66-15.63 9.72l-15.1 9.2-13.18.04H197.8l-.05 1.82c0 1.02-.04 4.66-.04 8.08v6.3l-15.85 9.64c-8.7 5.32-16.52 10.12-17.36 10.65-.85.58-7.86 4.89-15.54 9.6-7.68 4.65-17.23 10.52-21.23 12.96-4 2.44-7.37 4.7-7.5 5.1-.22.54-.31 9.15-.18 12.75.05.84.36.88 9.68.88h9.68v38.5c0 21.13.13 38.63.31 38.8.53.54 232.17.5 232.48-.04.18-.27.31-17.72.31-38.85v-38.4l9.5-.1c5.24-.08 9.64-.3 9.77-.53.36-.53.22-12.7-.13-13.27-.14-.23-3.6-2.49-7.68-4.98a357.03 357.03 0 01-9.02-5.55c-1.55-.97-4.4-2.7-5.86-3.55-.84-.49-35.65-21.8-47.5-29.12l-7.46-4.58.04-6.92v-8.04l-.04-1.15h-26.42l-15.1-9.24a642.81 642.81 0 01-15.63-9.72c-.4-.36 1.91-.5 8.88-.5h9.42l.04-9.67.09-9.64-1.2-.04c-7.37-.13-37.07-.13-37.34.04zm79.83 79.2c9.15 2.53 15.36 6.13 22.16 12.8 10.6 10.42 15.9 26.28 13.63 40.97-1.07 6.7-2.27 10.4-5.2 15.94a48.47 48.47 0 01-27.93 23.4c-4.26 1.38-5.28 1.55-10.74 2.09-19.1 1.86-37.7-8.35-47.06-25.75-1.56-2.93-4-9.46-4.44-12.13-.14-.75-.36-1.82-.54-2.44-.57-2.57-.53-11.9.1-15.72 3.28-20.24 18.9-36.14 39.24-40 5.33-1.02 15.59-.58 20.78.84zm-80.23 18.34c.13 2.62.04 18.38-.13 18.56-.18.22-34.46.36-53.73.27l-4.35-.05v-9.46c0-5.23.09-9.59.18-9.67.13-.1 13.19-.18 29.08-.18 22.82 0 28.9.13 28.95.53zm-38.76 48.04v9.73l-19.45-.05-19.45-.04v-9.33c0-5.15.1-9.5.23-9.72.08-.18 8.83-.31 19.4-.31h19.27zm38.76-8.97c.04 1.02.04 16.48 0 17.76l-.04.98-9.64-.09-9.68-.09-.04-9.32c0-5.15.04-9.46.13-9.68.13-.18 4.48-.31 9.72-.31 8.75 0 9.5.04 9.55.75z"/>
    <path d="M301.93 294.96c-10.04 1.16-19.27 8-23.8 17.63-2.13 4.62-2.62 7.01-2.45 12.43.1 3.2.45 5.24 1.16 7.33 2.17 6.12 6.93 12.34 12.12 15.76 2.8 1.86 8.21 4.13 10.75 4.57 2.3.36 7.54.36 9.54-.04 2.98-.54 8.97-2.93 9.77-3.91a2 2 0 01.75-.44c1.16-.4 5.42-4.31 7.42-6.8 4.44-5.55 6.57-11.8 6.3-18.38a38.93 38.93 0 00-.4-4.75c-3.5-14.16-17.8-24.9-31.16-23.4z"/>
  </g>
</svg>
