<?xml version="1.0" encoding="UTF-8" standalone="no"?>
<svg
   xmlns:dc="http://purl.org/dc/elements/1.1/"
   xmlns:cc="http://creativecommons.org/ns#"
   xmlns:rdf="http://www.w3.org/1999/02/22-rdf-syntax-ns#"
   xmlns:svg="http://www.w3.org/2000/svg"
   xmlns="http://www.w3.org/2000/svg"
   viewBox="0 0 512 512"
   height="512"
   width="512"
   id="svg330"
   version="1.1">
  <metadata
     id="metadata336">
    <rdf:RDF>
      <cc:Work
         rdf:about="">
        <dc:format>image/svg+xml</dc:format>
        <dc:type
           rdf:resource="http://purl.org/dc/dcmitype/StillImage" />
        <dc:title></dc:title>
      </cc:Work>
    </rdf:RDF>
  </metadata>
  <defs
     id="defs334" />
  <g
     id="g338">
    <circle
       r="230"
       cy="257"
       cx="257"
       id="path550"
       style="fill:#cc0088;fill-opacity:1;stroke-width:2.76302;stroke-opacity:0" />
    <g
       style="fill:#ffffdd;fill-opacity:1"
       transform="matrix(0.44400075,0,0,0.44400075,100.57095,100.57785)"
       id="g548">
      <path
         style="fill:#ffffdd;fill-opacity:1"
         d="m 132.8,43.8 c -1.3,0.3 -1.6,3.1 -1.6,21.7 0,15 0.4,21.5 1.2,21.7 0.6,0.2 99,0.4 218.6,0.4 l 217.5,-0.1 0.2,-21.8 c 0.1,-16.3 -0.1,-21.7 -1,-21.8 -3.6,-0.2 -433.6,-0.4 -434.9,-0.1 z m 86.2,87.6 c -0.1,0.2 -0.2,33.3 -0.1,38.3 l 0.1,5.3 h 131 c 124.1,0 131,-0.1 131.1,-1.8 0,-1.8 0,-32.1 -0.1,-38.4 v -3.6 H 350 c -72,0 -131,0.1 -131,0.2 z m 88,87.6 c -0.4,0.3 -0.7,10.2 -0.6,22 l 0.1,21.5 h 21.2 c 16,0 20.9,0.3 20,1.1 -0.6,0.6 -16.5,10.5 -35.2,21.9 l -34,20.7 -29.7,0.1 H 219 l -0.1,4.1 c 0,2.3 -0.1,10.5 -0.1,18.2 v 14.2 l -35.7,21.7 c -19.6,12 -37.2,22.8 -39.1,24 -1.9,1.3 -17.7,11 -35,21.6 -17.3,10.5 -38.8,23.7 -47.8,29.2 -9,5.5 -16.6,10.6 -16.9,11.5 -0.5,1.2 -0.7,20.6 -0.4,28.7 0.1,1.9 0.8,2 21.8,2 h 21.8 v 86.7 c 0,47.6 0.3,87 0.7,87.4 1.2,1.2 522.9,1.1 523.6,-0.1 0.4,-0.6 0.7,-39.9 0.7,-87.5 v -86.5 l 21.4,-0.2 c 11.8,-0.2 21.7,-0.7 22,-1.2 0.8,-1.2 0.5,-28.6 -0.3,-29.9 -0.3,-0.5 -8.1,-5.6 -17.3,-11.2 -9.3,-5.6 -18.4,-11.2 -20.3,-12.5 -3.5,-2.2 -9.9,-6.1 -13.2,-8 -1.9,-1.1 -80.3,-49.1 -107,-65.6 L 481,342.6 481.1,327 v -18.1 l -0.1,-2.6 h -59.5 l -34,-20.8 c -18.7,-11.4 -34.5,-21.3 -35.2,-21.9 -0.9,-0.8 4.3,-1.1 20,-1.1 h 21.2 l 0.1,-21.8 0.2,-21.7 -2.7,-0.1 c -16.6,-0.3 -83.5,-0.3 -84.1,0.1 z m 179.8,178.4 c 20.6,5.7 34.6,13.8 49.9,28.8 23.9,23.5 35.8,59.2 30.7,92.3 -2.4,15.1 -5.1,23.4 -11.7,35.9 -13.5,25.2 -35.5,43.7 -62.9,52.7 -9.6,3.1 -11.9,3.5 -24.2,4.7 -43,4.2 -84.9,-18.8 -106,-58 -3.5,-6.6 -9,-21.3 -10,-27.3 -0.3,-1.7 -0.8,-4.1 -1.2,-5.5 -1.3,-5.8 -1.2,-26.8 0.2,-35.4 7.4,-45.6 42.6,-81.4 88.4,-90.1 12,-2.3 35.1,-1.3 46.8,1.9 z m -180.7,41.3 c 0.3,5.9 0.1,41.4 -0.3,41.8 -0.4,0.5 -77.6,0.8 -121,0.6 L 175,481 v -21.3 c 0,-11.8 0.2,-21.6 0.4,-21.8 0.3,-0.2 29.7,-0.4 65.5,-0.4 51.4,0 65.1,0.3 65.2,1.2 z m -87.3,108.2 v 21.9 l -43.8,-0.1 -43.8,-0.1 v -21 c 0,-11.6 0.2,-21.4 0.5,-21.9 0.2,-0.4 19.9,-0.7 43.7,-0.7 h 43.4 z m 87.3,-20.2 c 0.1,2.3 0.1,37.1 0,40 l -0.1,2.2 -21.7,-0.2 -21.8,-0.2 -0.1,-21 c 0,-11.6 0.1,-21.3 0.3,-21.8 0.3,-0.4 10.1,-0.7 21.9,-0.7 19.7,0 21.4,0.1 21.5,1.7 z"
         id="path534" />
      <path
         style="fill:#ffffdd;fill-opacity:1"
         d="m 453.5,437.8 c -22.6,2.6 -43.4,18 -53.6,39.7 -4.8,10.4 -5.9,15.8 -5.5,28 0.2,7.2 1,11.8 2.6,16.5 4.9,13.8 15.6,27.8 27.3,35.5 6.3,4.2 18.5,9.3 24.2,10.3 5.2,0.8 17,0.8 21.5,-0.1 6.7,-1.2 20.2,-6.6 22,-8.8 0.3,-0.3 1,-0.8 1.7,-1 2.6,-0.9 12.2,-9.7 16.7,-15.3 10,-12.5 14.8,-26.6 14.2,-41.4 -0.2,-4.8 -0.6,-9.6 -0.9,-10.7 -7.9,-31.9 -40.1,-56.1 -70.2,-52.7 z"
         id="path536" />
    </g>
  </g>
</svg>
