<svg version="1.0" xmlns="http://www.w3.org/2000/svg" width="700" height="700">
  <style>@media (prefers-color-scheme: dark) { path { fill: #fff; } }</style>
  <path d="M133 44c-1 0-2 3-2 21l1 22 219 1h218V66l-1-22H133zm86 87v44h131c124 0 131 0 131-2v-42H219zm88 88l-1 22v22h22c16 0 21 0 20 1l-36 22-33 20h-60v37l-36 22a11306 11306 0 00-74 45l-48 29c-9 5-16 11-17 12v29c0 1 1 2 22 2h22v174h524l1-88v-86l21-1 22-1v-30l-18-11a804 804 0 01-33-20l-107-66-17-10v-37h-59l-34-21-36-21c-1-1 5-2 20-2h22v-43h-87zm180 178a109 109 0 11-134 129l-2-5c-1-6-1-27 1-35 7-46 42-82 88-90 12-3 35-2 47 1zm-181 42v41l-121 1h-10v-21-22a2865 2865 0 01131 1zm-87 108v22h-88v-21l1-22 43-1h44v22zm87-20v42h-22l-21-1-1-21 1-21 22-1c19 0 21 0 21 2z"/>
  <path d="M454 438c-23 2-44 18-54 40-5 10-6 15-6 28 1 7 1 11 3 16 5 14 16 28 27 36 7 4 19 9 25 10h21a67 67 0 0024-10l16-15c10-13 15-27 15-42l-1-10c-8-32-40-57-70-53z"/>
</svg>