<svg xmlns="http://www.w3.org/2000/svg" width="512" height="512" viewbox="0 0 512 512">
  <path fill="#c08" d="M0 0h512v512H0z"/>
  <path d="M255.7 120h-96.2c-.5.2-.7 1.4-.7 9.7 0 6.6.2 9.5.6 9.6.2 0 44 .2 97 .2H353v-9.8c.1-7.2 0-9.6-.4-9.6l-96.9-.1zm.3 38.8l-58.2.1v19.4H256c55 0 58.1 0 58.2-.8v-18.7H256zm-3.1 38.9l-16 .1c-.2.2-.3 4.5-.3 9.8v9.5h9.5c7 0 9.2.2 8.8.5-.2.3-7.3 4.7-15.6 9.7l-15 9.2h-26.5v16.3l-16 9.6a4445.5 4445.5 0 00-32.8 20.3l-21.3 13a49 49 0 00-7.5 5c-.2.6-.3 9.2-.1 12.8 0 .8.3.9 9.6.9h9.7v38.5c0 21 .1 38.6.3 38.8.6.5 232.2.5 232.5 0 .2-.4.3-17.8.3-39v-38.3l9.5-.1c5.2-.1 9.6-.3 9.8-.6.3-.5.2-12.7-.1-13.2-.2-.3-3.6-2.5-7.7-5a357 357 0 01-9-5.6l-6-3.5-47.4-29.1-7.5-4.6v-16.1h-26.4l-15-9.3a642.8 642.8 0 01-15.7-9.7c-.4-.3 1.9-.5 8.9-.5h9.4v-9.7l.1-9.6h-1.2l-21.3-.1zm50.6 78a46.7 46.7 0 0135.4 14.2 48.4 48.4 0 018.4 56.8 48.5 48.5 0 01-28 23.4 48.5 48.5 0 11-15.9-94.5zm1 19.1a30.9 30.9 0 00-26.3 17.8c-2.2 4.6-2.7 7-2.5 12.4 0 3.2.4 5.3 1.1 7.3 2.2 6.2 7 12.4 12.2 15.8 2.8 1.9 8.2 4.1 10.7 4.6 2.3.3 7.6.3 9.6 0 3-.6 9-3 9.7-4a2 2 0 01.8-.4 34 34 0 007.4-6.8 27.2 27.2 0 006.3-18.4 39 39 0 00-.4-4.7 31.4 31.4 0 00-28.7-23.6zm-97 0c22.8 0 29 .2 29 .6.1 2.6 0 18.3-.2 18.5-.1.2-34.4.4-53.7.3h-4.3v-9.5l.1-9.7c.2 0 13.2-.2 29.1-.2zm-29 38.9h19.2V353h-38.9v-9.4c0-5.1.1-9.5.3-9.7 0-.2 8.8-.3 19.3-.3zm48.4 0c8.8 0 9.5 0 9.6.7v18.8l-9.7-.1-9.7-.1v-9.3l.1-9.7c.1-.2 4.5-.3 9.7-.3z" fill="#ffd"/>
</svg>