<?xml version="1.0" standalone="no"?>
<!DOCTYPE svg PUBLIC "-//W3C//DTD SVG 20010904//EN"
 "http://www.w3.org/TR/2001/REC-SVG-20010904/DTD/svg10.dtd">
<svg version="1.0" xmlns="http://www.w3.org/2000/svg"
 width="700.000000pt" height="700.000000pt" viewBox="0 0 700.000000 700.000000"
 preserveAspectRatio="xMidYMid meet">
<metadata>
Created by potrace 1.11, written by Peter Selinger 2001-2013
</metadata>
<g transform="translate(0.000000,700.000000) scale(0.100000,-0.100000)"
fill="#000000" stroke="none">
<path d="M1328 6562 c-13 -3 -16 -31 -16 -217 0 -150 4 -215 12 -217 6 -2 990
-4 2186 -4 l2175 1 2 218 c1 163 -1 217 -10 218 -36 2 -4336 4 -4349 1z"/>
<path d="M2190 5686 c-1 -2 -2 -333 -1 -383 l1 -53 1310 0 c1241 0 1310 1
1311 18 0 18 0 321 -1 384 l0 36 -1310 0 c-720 0 -1310 -1 -1310 -2z"/>
<path d="M3070 4810 c-4 -3 -7 -102 -6 -220 l1 -215 212 0 c160 0 209 -3 200
-11 -6 -6 -165 -105 -352 -219 l-340 -207 -297 -1 -298 0 -1 -41 c0 -23 -1
-105 -1 -182 l0 -142 -357 -217 c-196 -120 -372 -228 -391 -240 -19 -13 -177
-110 -350 -216 -173 -105 -388 -237 -478 -292 -90 -55 -166 -106 -169 -115 -5
-12 -7 -206 -4 -287 1 -19 8 -20 218 -20 l218 0 0 -867 c0 -476 3 -870 7 -874
12 -12 5229 -11 5236 1 4 6 7 399 7 875 l0 865 214 2 c118 2 217 7 220 12 8
12 5 286 -3 299 -3 5 -81 56 -173 112 -93 56 -184 112 -203 125 -35 22 -99 61
-132 80 -19 11 -803 491 -1070 656 l-168 103 1 156 c0 85 0 167 0 181 l-1 26
-298 0 -297 0 -340 208 c-187 114 -345 213 -352 219 -9 8 43 11 200 11 l212 0
1 218 2 217 -27 1 c-166 3 -835 3 -841 -1z m1798 -1784 c206 -57 346 -138 499
-288 239 -235 358 -592 307 -923 -24 -151 -51 -234 -117 -359 -135 -252 -355
-437 -629 -527 -96 -31 -119 -35 -242 -47 -430 -42 -849 188 -1060 580 -35 66
-90 213 -100 273 -3 17 -8 41 -12 55 -13 58 -12 268 2 354 74 456 426 814 884
901 120 23 351 13 468 -19z m-1807 -413 c3 -59 1 -414 -3 -418 -4 -5 -776 -8
-1210 -6 l-98 1 0 213 c0 118 2 216 4 218 3 2 297 4 655 4 514 0 651 -3 652
-12z m-873 -1082 l0 -219 -438 1 -438 1 0 210 c0 116 2 214 5 219 2 4 199 7
437 7 l434 0 0 -219z m873 202 c1 -23 1 -371 0 -400 l-1 -22 -217 2 -218 2 -1
210 c0 116 1 213 3 218 3 4 101 7 219 7 197 0 214 -1 215 -17z"/>
<path d="M4535 2622 c-226 -26 -434 -180 -536 -397 -48 -104 -59 -158 -55
-280 2 -72 10 -118 26 -165 49 -138 156 -278 273 -355 63 -42 185 -93 242
-103 52 -8 170 -8 215 1 67 12 202 66 220 88 3 3 10 8 17 10 26 9 122 97 167
153 100 125 148 266 142 414 -2 48 -6 96 -9 107 -79 319 -401 561 -702 527z"/>
</g>
</svg>
