<svg version="1.0" xmlns="http://www.w3.org/2000/svg" width="700" height="700" viewBox="0 0 700 700">
    @media (prefers-color-scheme: dark) {
        path {
            fill: #fff;
        }
    }
  <path d="M132.8 43.8c-1.3.3-1.6 3.1-1.6 21.7 0 15 .4 21.5 1.2 21.7.6.2 99 .4 218.6.4l217.5-.1.2-21.8c.1-16.3-.1-21.7-1-21.8-3.6-.2-433.6-.4-434.9-.1zM219 131.4c-.1.2-.2 33.3-.1 38.3l.1 5.3h131c124.1 0 131-.1 131.1-1.8 0-1.8 0-32.1-.1-38.4v-3.6H350c-72 0-131 .1-131 .2zM307 219c-.4.3-.7 10.2-.6 22l.1 21.5h21.2c16 0 20.9.3 20 1.1-.6.6-16.5 10.5-35.2 21.9l-34 20.7-29.7.1H219l-.1 4.1c0 2.3-.1 10.5-.1 18.2v14.2l-35.7 21.7c-19.6 12-37.2 22.8-39.1 24-1.9 1.3-17.7 11-35 21.6-17.3 10.5-38.8 23.7-47.8 29.2s-16.6 10.6-16.9 11.5c-.5 1.2-.7 20.6-.4 28.7.1 1.9.8 2 21.8 2h21.8v86.7c0 47.6.3 87 .7 87.4 1.2 1.2 522.9 1.1 523.6-.1.4-.6.7-39.9.7-87.5v-86.5l21.4-.2c11.8-.2 21.7-.7 22-1.2.8-1.2.5-28.6-.3-29.9-.3-.5-8.1-5.6-17.3-11.2-9.3-5.6-18.4-11.2-20.3-12.5-3.5-2.2-9.9-6.1-13.2-8-1.9-1.1-80.3-49.1-107-65.6L481 342.6l.1-15.6v-18.1l-.1-2.6h-59.5l-34-20.8c-18.7-11.4-34.5-21.3-35.2-21.9-.9-.8 4.3-1.1 20-1.1h21.2l.1-21.8.2-21.7-2.7-.1c-16.6-.3-83.5-.3-84.1.1zm179.8 178.4c20.6 5.7 34.6 13.8 49.9 28.8 23.9 23.5 35.8 59.2 30.7 92.3-2.4 15.1-5.1 23.4-11.7 35.9-13.5 25.2-35.5 43.7-62.9 52.7-9.6 3.1-11.9 3.5-24.2 4.7-43 4.2-84.9-18.8-106-58-3.5-6.6-9-21.3-10-27.3-.3-1.7-.8-4.1-1.2-5.5-1.3-5.8-1.2-26.8.2-35.4 7.4-45.6 42.6-81.4 88.4-90.1 12-2.3 35.1-1.3 46.8 1.9zm-180.7 41.3c.3 5.9.1 41.4-.3 41.8-.4.5-77.6.8-121 .6l-9.8-.1v-21.3c0-11.8.2-21.6.4-21.8.3-.2 29.7-.4 65.5-.4 51.4 0 65.1.3 65.2 1.2zm-87.3 108.2v21.9l-43.8-.1-43.8-.1v-21c0-11.6.2-21.4.5-21.9.2-.4 19.9-.7 43.7-.7h43.4v21.9zm87.3-20.2c.1 2.3.1 37.1 0 40l-.1 2.2-21.7-.2-21.8-.2-.1-21c0-11.6.1-21.3.3-21.8.3-.4 10.1-.7 21.9-.7 19.7 0 21.4.1 21.5 1.7z"/>
  <path d="M453.5 437.8c-22.6 2.6-43.4 18-53.6 39.7-4.8 10.4-5.9 15.8-5.5 28 .2 7.2 1 11.8 2.6 16.5 4.9 13.8 15.6 27.8 27.3 35.5 6.3 4.2 18.5 9.3 24.2 10.3 5.2.8 17 .8 21.5-.1 6.7-1.2 20.2-6.6 22-8.8.3-.3 1-.8 1.7-1 2.6-.9 12.2-9.7 16.7-15.3 10-12.5 14.8-26.6 14.2-41.4-.2-4.8-.6-9.6-.9-10.7-7.9-31.9-40.1-56.1-70.2-52.7z"/>
</svg>